# xmcd
#
# Track frame offsets:
#	150
#	11269
#	19996
#	31697
#	44793
#	55738
#	68700
#	83001
#	93052
#	105481
#	114818
#	128453
#	140353
#	153175
#	169662
#	181145
#	192663
#	202283
#	214161
#	226879
#	237973
#	248710
#	260897
#	271983
#	282526
#	294426
#	306447
#	318012
#
# Disc length: 4399 seconds
#
# Revision: 1
# Processed by: cddbd v1.5.2PL0 Copyright (c) Steve Scherf et al.
# Submitted via: audiograbber 1.83.01
#
DISCID=82112d1c
DTITLE=Various Artist - The Scene Club
DYEAR=2013
DGENRE=Soul
TTITLE0=Betty Everett - I've Got A Claim On You
TTITLE1=Baby Washington - Let Love Go By
TTITLE2=Roscoe Shelton - Question
TTITLE3=Don Gardner and Dee Dee Ford - I Need Your Lovin'
TTITLE4=Alvin Robinson - Let The Good Times Roll
TTITLE5=Ike and Tina Turner - A Fool In Love
TTITLE6=Cookie and His Cupcakes - Mathilda
TTITLE7=Jimmy Reed - Ain't That Loving You Baby
TTITLE8=Wilbert Harrison - Let's Stick Together
TTITLE9=The Dixie Cups - Iko Iko
TTITLE10=Don Covay and The Goodtimers - See About Me
TTITLE11=Alvin Cash and The Registers - Alvin's Boo-Ga-Loo
TTITLE12=Johnny Nash - Ol' Man River
TTITLE13=Billy Preston - Billy's Bag
TTITLE14=Jerry Butler - Just For You
TTITLE15=Gerri Hall - Who Can I Run To
TTITLE16=Harold Burrage - I'll Take One
TTITLE17=Gene Chandler - A Song Called Soul
TTITLE18=Chris Kenner - Land Of 1000 Dances
TTITLE19=The Upsetters - Jaywalking
TTITLE20=The Five Du-Tones - Shake A Tail Feather
TTITLE21=Lazy Lester - I'm A Lover Not A Fighter
TTITLE22=The Daylighters - Oh Mom (Teach Me How To Uncle Willie)
TTITLE23=Bobby Day - Over And Over
TTITLE24=Little Hank - Mister Bang Bang Man
TTITLE25=Derrick and Patsy - Housewive's Choice
TTITLE26=Sonny Knight - Confidential
TTITLE27=Bessie Banks - Go Now
EXTD=The Scene Club: Ham Yard, London 1963 - 1966 (Club Soul W1)
EXTT0=
EXTT1=
EXTT2=
EXTT3=
EXTT4=
EXTT5=
EXTT6=
EXTT7=
EXTT8=
EXTT9=
EXTT10=
EXTT11=
EXTT12=
EXTT13=
EXTT14=
EXTT15=
EXTT16=
EXTT17=
EXTT18=
EXTT19=
EXTT20=
EXTT21=
EXTT22=
EXTT23=
EXTT24=
EXTT25=
EXTT26=
EXTT27=
PLAYORDER=
